PathFileType	4	(X/Y/Z)	1H_nor_fast_right.trc
DataRate	CameraRate	NumFrames	NumMarkers	Units	OrigDataRate	OrigDataStartFrame	OrigNumFrames
250.00	250.00	17	18	mm	250.00	1	9233
Frame#	Time	c7	r_should	r_elb_m	clavicle	r_upa	r_wri_m	l_upa	l_elb_l	l_low	l_wri_l	l_met	l_elb_m	r_elb_l	l_should	r_low	r_wri_l	r_met	l_wri_m
	X1	Y1	Z1	X2	Y2	Z2	X3	Y3	Z3	X4	Y4	Z4	X5	Y5	Z5	X6	Y6	Z6	X7	Y7	Z7	X8	Y8	Z8	X9	Y9	Z9	X10	Y10	Z10	X11	Y11	Z11	X12	Y12	Z12	X13	Y13	Z13	X14	Y14	Z14	X15	Y15	Z15	X16	Y16	Z16	X17	Y17	Z17	X18	Y18	Z18
1	0.00000	1096.54163	1422.31519	145.55290	1151.67419	1351.69629	307.59146	1066.16309	1029.72583	347.91977	1215.97217	1289.24988	133.54674	1153.00293	1139.92615	366.04373	1104.22290	794.04980	394.55518	1116.03125	1147.16870	-87.19534	1121.31201	1038.85913	-102.48625	1129.42224	919.35718	-94.27574	1154.11157	802.82532	-67.08874	1139.10364	722.12805	-105.00161	1070.59131	1030.04993	-15.59497	1150.87134	1053.14441	388.96133	1122.24744	1362.45203	-30.27761	1166.51135	918.81128	389.61084	1180.22534	798.33978	383.43054	1178.62573	726.23315	419.34866	1077.38428	793.97607	-63.05133
2	0.00400	1096.52698	1422.32520	145.67361	1151.72363	1351.72498	307.65659	1066.42322	1029.68115	348.04709	1215.94592	1289.25598	133.57150	1153.24280	1139.89893	366.08337	1104.50598	794.02771	394.69989	1115.95911	1147.15271	-87.08421	1121.14673	1039.02222	-102.52196	1129.81433	918.49835	-93.45583	1154.09863	802.79987	-66.96027	1139.13501	722.10529	-104.88622	1070.57715	1030.01807	-15.45278	1151.16235	1053.10815	388.97986	1122.13171	1362.44873	-30.18975	1166.74231	918.75006	389.61099	1180.47974	798.29358	383.45044	1178.92310	726.18439	419.39743	1077.36060	793.93896	-62.96343
3	0.00800	1096.51672	1422.33398	145.79689	1151.80566	1351.71960	307.74176	1066.68774	1029.64343	348.17230	1215.91870	1289.26160	133.59766	1153.48047	1139.87427	366.12128	1104.79114	793.99414	394.83917	1115.89209	1147.13550	-86.96970	1120.80737	1039.42798	-102.74521	1129.20654	919.63666	-94.30345	1154.08069	802.78473	-66.84164	1139.16077	722.08453	-104.77724	1070.56360	1029.98657	-15.30756	1151.44836	1053.07092	389.00076	1122.01587	1362.44482	-30.10394	1166.94910	918.68536	389.61182	1180.73376	798.24976	383.46625	1179.22876	726.13428	419.44073	1077.32959	793.89948	-62.88156
4	0.01200	1096.51282	1422.34473	145.92163	1151.89380	1351.70190	307.82922	1066.94946	1029.60388	348.30426	1215.89478	1289.26575	133.62346	1153.71436	1139.84058	366.15057	1105.08191	793.96252	394.98096	1115.82886	1147.12122	-86.85586	1120.69470	1039.52039	-102.71648	1129.37256	919.22498	-93.84871	1154.05933	802.77887	-66.72627	1139.18542	722.06726	-104.67216	1070.54871	1029.96350	-15.15884	1151.72729	1053.03271	389.03235	1121.89417	1362.44641	-30.01900	1166.83362	918.72992	389.42236	1180.98804	798.20807	383.48282	1179.53235	726.09259	419.48395	1077.30225	793.85577	-62.79176
5	0.01600	1096.50623	1422.35193	146.04727	1152.30225	1351.40955	308.08395	1067.20288	1029.56799	348.43713	1215.87354	1289.26660	133.65431	1153.93970	1139.80261	366.17987	1105.36646	793.92584	395.13287	1115.76257	1147.10547	-86.74741	1120.64172	1039.52795	-102.62588	1130.07422	917.74261	-92.49071	1154.03418	802.76312	-66.60397	1139.20801	722.05450	-104.56866	1070.53040	1029.93384	-15.01296	1151.99670	1052.99927	389.08322	1121.76794	1362.44800	-29.92797	1166.65088	918.80194	389.19205	1181.23743	798.16968	383.49548	1179.82935	726.05072	419.52829	1077.26819	793.81274	-62.70609
6	0.02000	1096.49658	1422.35779	146.17271	1153.09863	1350.77209	308.54446	1067.44397	1029.54016	348.56946	1215.85132	1289.26746	133.67963	1154.17053	1139.76160	366.20743	1105.65015	793.88977	395.28430	1115.69373	1147.08875	-86.63867	1120.59302	1039.51196	-102.51524	1130.21643	917.35883	-92.04799	1154.00403	802.74768	-66.48129	1139.22742	722.04810	-104.46348	1070.51160	1029.90723	-14.87669	1152.26099	1052.97302	389.16171	1121.64490	1362.44092	-29.83260	1167.07104	918.67059	389.36148	1181.46594	798.13287	383.51923	1180.11719	726.00830	419.56613	1077.23010	793.77472	-62.62209
7	0.02400	1096.49182	1422.36377	146.29219	1153.37500	1350.59314	308.71625	1067.67114	1029.51379	348.70886	1215.82751	1289.26941	133.70013	1154.40283	1139.72070	366.24033	1105.92090	793.85449	395.43250	1115.62341	1147.07068	-86.52831	1120.53784	1039.49231	-102.40245	1130.22046	917.24554	-91.83777	1153.96558	802.73273	-66.35760	1139.24634	722.03925	-104.35416	1070.48230	1029.88464	-14.73937	1152.52454	1052.94592	389.25159	1121.52478	1362.43188	-29.74430	1166.66113	919.07269	388.94528	1181.69128	798.10474	383.53568	1180.39905	725.96692	419.60260	1077.19312	793.74658	-62.54452
8	0.02800	1096.48511	1422.37231	146.41350	1153.52942	1350.52698	308.82202	1067.88916	1029.48254	348.85522	1215.80933	1289.27234	133.71149	1154.62634	1139.68066	366.27368	1106.18359	793.81714	395.57614	1115.54639	1147.05334	-86.42606	1120.47961	1039.46204	-102.28741	1130.18994	917.20050	-91.69943	1153.92419	802.72040	-66.23276	1139.26440	722.02533	-104.24751	1070.44958	1029.85889	-14.60688	1152.77625	1052.92249	389.33627	1121.40649	1362.42334	-29.65338	1166.58569	919.60925	388.69427	1181.92480	798.07684	383.55435	1180.68250	725.93207	419.63632	1077.15564	793.71204	-62.47421
9	0.03200	1096.48157	1422.37598	146.53169	1153.65283	1350.48938	308.90689	1068.10168	1029.44775	348.99921	1215.79236	1289.27185	133.72148	1154.85071	1139.63318	366.32620	1106.43652	793.78070	395.71631	1115.46277	1147.02576	-86.32740	1120.41956	1039.42993	-102.18257	1130.14783	917.17432	-91.58255	1153.87659	802.70264	-66.11543	1139.28418	722.01324	-104.14534	1070.43079	1029.82007	-14.47604	1153.02283	1052.90820	389.44153	1121.28857	1362.41028	-29.56686	1166.72083	919.71069	388.65820	1182.16260	798.03998	383.58450	1180.96436	725.89917	419.67404	1077.11536	793.67224	-62.39260
10	0.03600	1096.48022	1422.38123	146.64127	1153.76917	1350.45276	308.98050	1068.30908	1029.41956	349.14868	1215.77441	1289.26831	133.72487	1155.07849	1139.58838	366.39386	1106.69373	793.74670	395.86682	1115.38232	1146.99719	-86.23162	1120.35791	1039.39038	-102.05754	1130.10034	917.14215	-91.45618	1153.82690	802.66406	-65.98719	1139.30261	722.00507	-104.05022	1070.40405	1029.78088	-14.34898	1153.26465	1052.88818	389.54080	1121.16577	1362.39490	-29.48709	1166.89575	919.69421	388.68201	1182.39978	798.00366	383.61435	1181.24646	725.87085	419.71353	1077.07275	793.63379	-62.31818
11	0.04000	1096.48071	1422.38879	146.74385	1153.88391	1350.41870	309.05322	1068.51123	1029.38867	349.30737	1215.75464	1289.26514	133.73013	1155.31006	1139.54932	366.46686	1106.95410	793.70691	396.00348	1115.29431	1146.97290	-86.13724	1120.28772	1039.35522	-101.93784	1130.04688	917.11584	-91.33685	1153.77417	802.63049	-65.86239	1139.31897	721.99512	-103.95610	1070.36609	1029.74744	-14.23141	1153.50403	1052.86133	389.62814	1121.04236	1362.37610	-29.40518	1167.08850	919.65411	388.72501	1182.63916	797.97223	383.63870	1181.53333	725.84576	419.74130	1077.03149	793.59521	-62.24545
12	0.04400	1096.48230	1422.39575	146.85652	1153.99890	1350.38245	309.12592	1068.70959	1029.36670	349.47028	1215.73792	1289.26758	133.74030	1155.54236	1139.51367	366.53949	1107.21570	793.67731	396.12628	1115.20105	1146.95349	-86.03701	1120.20703	1039.33655	-101.83151	1129.99341	917.08423	-91.23016	1153.72131	802.60968	-65.74119	1139.33411	721.98560	-103.86088	1070.30969	1029.71387	-14.11149	1153.73779	1052.84668	389.69614	1120.91687	1362.36218	-29.31779	1167.28638	919.61517	388.78455	1182.87317	797.94916	383.66968	1181.82092	725.82471	419.76999	1076.97717	793.55902	-62.16980
13	0.04800	1096.48584	1422.40479	146.97679	1154.10742	1350.35278	309.19312	1068.91003	1029.35693	349.63474	1215.72229	1289.27771	133.74809	1155.76648	1139.49097	366.60837	1107.46741	793.65594	396.25317	1115.10474	1146.93726	-85.94160	1120.11987	1039.32080	-101.73174	1129.93188	917.05804	-91.12338	1153.66211	802.58765	-65.61519	1139.34619	721.98029	-103.77321	1070.25134	1029.68506	-13.99741	1153.96716	1052.82739	389.75677	1120.79163	1362.35278	-29.23502	1167.49170	919.57629	388.83398	1183.10266	797.92358	383.68399	1182.09912	725.80554	419.80063	1076.92346	793.52594	-62.10634
14	0.05200	1096.48535	1422.40942	147.09161	1153.91174	1350.60156	309.10117	1069.10535	1029.34937	349.79370	1215.70178	1289.28052	133.75494	1155.98303	1139.46802	366.67505	1107.69995	793.63324	396.34839	1115.00354	1146.92676	-85.85497	1120.02966	1039.31226	-101.63260	1129.86816	917.04138	-91.02226	1153.59778	802.57031	-65.49734	1139.35510	721.97913	-103.68085	1070.17749	1029.66919	-13.89289	1154.19885	1052.81042	389.82968	1120.66943	1362.34473	-29.15652	1167.69043	919.54755	388.88028	1183.32397	797.90326	383.70706	1182.37793	725.79071	419.83008	1076.86621	793.49933	-62.03151
15	0.05600	1096.48132	1422.41272	147.20247	1153.33118	1351.19788	308.80685	1069.29187	1029.34204	349.94724	1215.67542	1289.28369	133.76871	1156.18921	1139.45337	366.75418	1107.93555	793.61871	396.44342	1114.90063	1146.92188	-85.76771	1119.95032	1039.29907	-101.53459	1129.45935	917.70123	-91.49290	1153.52954	802.54205	-65.37019	1139.35706	721.98212	-103.59530	1070.08984	1029.65479	-13.78376	1154.42651	1052.79126	389.89554	1120.54785	1362.33911	-29.07843	1167.88574	919.52039	388.92310	1183.53467	797.89020	383.74283	1182.65210	725.78735	419.86481	1076.80273	793.46887	-61.96268
16	0.06000	1096.47815	1422.42236	147.30748	1153.25952	1351.33459	308.79068	1069.47681	1029.34009	350.10165	1215.64697	1289.28748	133.78175	1156.38855	1139.43823	366.83371	1108.16882	793.59808	396.53275	1114.78870	1146.90491	-85.67540	1119.85791	1039.28101	-101.43455	1128.61633	919.21448	-92.69611	1153.46045	802.51410	-65.24998	1139.35815	721.98926	-103.51251	1070.00745	1029.63013	-13.68719	1154.65405	1052.77710	389.96399	1120.42395	1362.33521	-28.99235	1168.06848	919.49994	388.96585	1183.75342	797.88892	383.76968	1182.92676	725.79303	419.88892	1076.74170	793.44141	-61.89849
17	0.06400	1096.47607	1422.43787	147.41200	1153.31726	1351.36292	308.84589	1069.66724	1029.34192	350.25055	1215.61646	1289.29114	133.79807	1156.57849	1139.42920	366.90741	1108.40344	793.57996	396.61786	1114.68103	1146.88477	-85.58789	1119.76855	1039.26624	-101.34068	1128.35059	919.58685	-92.93374	1153.39087	802.50018	-65.14089	1139.35974	721.99304	-103.42935	1069.89893	1029.62097	-13.58861	1154.87634	1052.77917	390.03781	1120.30896	1362.32874	-28.91145	1168.25342	919.48218	388.99872	1183.96973	797.88898	383.78909	1183.20605	725.80359	419.90851	1076.68066	793.42108	-61.84697
